<?xml version="1.0" encoding="UTF-8"?>
<svg width="512" height="512" viewBox="0 0 512 512" xmlns="http://www.w3.org/2000/svg">
  <defs>
    <linearGradient id="bg" x1="0" y1="0" x2="1" y2="1">
      <stop offset="0%" stop-color="#1E40AF"/>
      <stop offset="100%" stop-color="#3B82F6"/>
    </linearGradient>
    <linearGradient id="gold" x1="0" y1="0" x2="1" y2="1">
      <stop offset="0%" stop-color="#FDE68A"/>
      <stop offset="100%" stop-color="#F59E0B"/>
    </linearGradient>
    <linearGradient id="doc" x1="0" y1="0" x2="0" y2="1">
      <stop offset="0%" stop-color="#ffffff"/>
      <stop offset="100%" stop-color="#F8FAFC"/>
    </linearGradient>
  </defs>
  <rect width="512" height="512" rx="108" fill="url(#bg)"/>

  <!-- 合同版 - 撑满 -->
  <g transform="translate(258,256) scale(2.2)">
    <path d="M-68,-62 C-58,-68 26,-68 36,-62 C44,-56 46,-46 46,-28 C46,22 44,62 38,72 C32,82 18,86 -26,86 C-48,86 -64,82 -70,72 C-76,62 -76,-28 -70,-50 C-68,-56 -66,-60 -68,-62 Z" fill="url(#doc)" opacity="0.95"/>
    <path d="M36,-62 C36,-52 42,-46 46,-46" fill="#93C5FD" opacity="0.3"/>

    <!-- 合同标题 -->
    <text x="-12" y="-40" text-anchor="middle" font-family="Noto Sans CJK SC, SimSun, FangSong, serif" font-size="9" font-weight="900" fill="#1E293B" opacity="0.88" letter-spacing="2">技术服务合同</text>
    <path d="M-52,-32 L28,-32" fill="none" stroke="#94A3B8" stroke-width="0.8" opacity="0.4"/>
    <text x="-12" y="-22" text-anchor="middle" font-family="Noto Sans CJK SC, FangSong, serif" font-size="4.5" fill="#6B7280" opacity="0.55">合同编号：HT-2026-0315</text>
    <text x="-52" y="-10" font-family="Noto Sans CJK SC, FangSong, serif" font-size="5" fill="#374151" opacity="0.7">甲方（委托方）：xxx科技有限公司</text>
    <text x="-52" y="0" font-family="Noto Sans CJK SC, FangSong, serif" font-size="5" fill="#374151" opacity="0.7">乙方（服务方）：xxx信息技术有限公司</text>
    <text x="-52" y="14" font-family="Noto Sans CJK SC, FangSong, serif" font-size="5.2" font-weight="700" fill="#374151" opacity="0.75">第一条　服务内容与范围</text>
    <text x="-46" y="24" font-family="Noto Sans CJK SC, FangSong, serif" font-size="4.8" fill="#4B5563" opacity="0.6">1.1 乙方为甲方提供……技术开</text>
    <text x="-52" y="32" font-family="Noto Sans CJK SC, FangSong, serif" font-size="4.8" fill="#4B5563" opacity="0.6">发服务，具体内容详见附件一。</text>
    <text x="-52" y="44" font-family="Noto Sans CJK SC, FangSong, serif" font-size="5.2" font-weight="700" fill="#374151" opacity="0.75">第二条　合同金额与支付</text>
    <text x="-52" y="60" font-family="Noto Sans CJK SC, FangSong, serif" font-size="4.5" fill="#6B7280" opacity="0.5">甲方签章：______ 乙方签章：______</text>
    <!-- 印章 -->
    <circle cx="28" cy="72" r="12" fill="none" stroke="#DC2626" stroke-width="1.2" opacity="0.35"/>
    <text x="28" y="74" text-anchor="middle" font-family="Noto Sans CJK SC, SimSun, serif" font-size="4" fill="#DC2626" opacity="0.35">合同专用章</text>

    <!-- 小人 -->
    <circle cx="62" cy="-40" r="14" fill="#ffffff" opacity="0.92"/>
    <circle cx="56" cy="-44" r="2.8" fill="#1E40AF" opacity="0.7"/>
    <circle cx="67" cy="-44" r="2.8" fill="#1E40AF" opacity="0.7"/>
    <circle cx="57" cy="-45.5" r="1.2" fill="#ffffff" opacity="0.7"/>
    <circle cx="68" cy="-45.5" r="1.2" fill="#ffffff" opacity="0.7"/>
    <path d="M58,-32 C62,-28 66,-32 66,-32" fill="none" stroke="#1E40AF" stroke-width="1.8" stroke-linecap="round" opacity="0.5"/>
    <path d="M62,-26 L62,14" stroke="#ffffff" stroke-width="4.5" stroke-linecap="round" opacity="0.88"/>
    <path d="M62,14 L52,42" stroke="#ffffff" stroke-width="4" stroke-linecap="round" opacity="0.82"/>
    <path d="M62,14 L72,42" stroke="#ffffff" stroke-width="4" stroke-linecap="round" opacity="0.82"/>
    <path d="M62,-10 L44,-26" stroke="#ffffff" stroke-width="4.5" stroke-linecap="round" opacity="0.88"/>
    <path d="M62,-6 L46,8" stroke="#ffffff" stroke-width="4.5" stroke-linecap="round" opacity="0.82"/>
    <path d="M44,-26 L22,-46" stroke="url(#gold)" stroke-width="5" stroke-linecap="round"/>
    <path d="M10,-56 C14,-64 34,-64 38,-56 C42,-48 42,-40 38,-34 C34,-28 14,-28 10,-34 C6,-40 6,-48 10,-56 Z" fill="url(#gold)" opacity="0.92"/>
    <path d="M16,-52 C20,-58 30,-58 34,-52" fill="none" stroke="#ffffff" stroke-width="2" stroke-linecap="round" opacity="0.4"/>
    <circle cx="20" cy="-30" r="2.5" fill="#FCD34D" opacity="0.5"/>
    <circle cx="14" cy="-24" r="1.8" fill="#FCD34D" opacity="0.4"/>
    <path d="M24,-26 L30,-32" stroke="#FCD34D" stroke-width="1.8" stroke-linecap="round" opacity="0.4"/>
  </g>
</svg>